<svg xmlns="http://www.w3.org/2000/svg" viewBox="0 0 742.14 675.16"><defs><style>.cls-1{fill:#6e563d;}.cls-2{fill:#604b35;}.cls-3{fill:#e09c77;}.cls-4{fill:#f7b081;}.cls-5{fill:#a58260;}.cls-6{fill:#8c6b50;}.cls-7{fill:#ff3d43;}.cls-8{fill:#d62d2d;}.cls-9{fill:#ffc89f;}.cls-10{fill:#8cc7ec;}.cls-11{fill:#66baea;}.cls-12{fill:#fd7dad;}.cls-13{fill:#fc63a1;}.cls-14{font-size:128px;fill:#1dc5ff;font-family:Montserrat-SemiBold, Montserrat;font-weight:700;}.cls-15{letter-spacing:-0.02em;}.cls-16{letter-spacing:-0.01em;}.cls-17,.cls-18,.cls-19{fill:#ff39aa;}.cls-17{letter-spacing:-0.05em;}.cls-19{letter-spacing:0em;}</style></defs><title>logo</title><g id="katman_2" data-name="katman 2"><g id="katman_1-2" data-name="katman 1"><path class="cls-1" d="M142.8,229C96.72,122.2,180.18,80.17,226.29,80.17h0c25.51,0,34.86,7.55,44.89,21.15a56.28,56.28,0,0,1,36.51-7.43C346.94,99.27,384,137.38,351,228.66"/><path class="cls-2" d="M307.69,93.9a56.45,56.45,0,0,0-21,1.1c36.85,8.34,68.6,47.08,37.33,133.67h27C384,137.38,346.94,99.27,307.69,93.9Z"/><path class="cls-3" d="M337.16,223a19.81,19.81,0,0,0-6.08,1A83.84,83.84,0,0,1,322.36,256a19.84,19.84,0,1,0,14.8-33Z"/><path class="cls-4" d="M162.77,223.94A19.85,19.85,0,1,0,171.49,256,83.83,83.83,0,0,1,162.77,223.94Z"/><path class="cls-5" d="M576.86,333.24c42.5-14.36,45.91-133.34,29.28-176.71A118.82,118.82,0,0,0,495.21,80.17h0a118.83,118.83,0,0,0-110.93,76.36c-16.62,43.37-13.21,162.34,29.29,176.71Z"/><path class="cls-6" d="M606.14,156.53A118.82,118.82,0,0,0,495.21,80.17h0a119.09,119.09,0,0,0-13.5.77,118.86,118.86,0,0,1,97.43,75.59c16.62,43.37,13.22,162.34-29.28,176.71h27C619.36,318.87,622.77,199.9,606.14,156.53Z"/><path class="cls-7" d="M379.07,20.1c-5.23-16.69-38.41-19.4-42.16,8-4.26,31.16,42.16,53.73,42.16,53.73s46.42-22.57,42.16-53.73C417.48.7,384.3,3.41,379.07,20.1Z"/><path class="cls-8" d="M421.23,28.1c-3-21.78-24.55-24.52-35.9-16.35,4.45,3.3,7.84,8.63,8.9,16.35,2.73,20-15.32,36.39-28.66,45.62a113.93,113.93,0,0,0,13.5,8.11S425.49,59.26,421.23,28.1Z"/><path class="cls-9" d="M331.3,203.06c-40.88-7-68-47.66-68-47.66s-19.42,47.66-100.71,47.66v15.17a84.37,84.37,0,0,0,84.37,84.37h0a84.37,84.37,0,0,0,84.37-84.37Z"/><path class="cls-4" d="M304.3,193.15v25.09a84.38,84.38,0,0,1-70.87,83.28,85,85,0,0,0,13.5,1.09h0a84.37,84.37,0,0,0,84.37-84.37V203.06A84,84,0,0,1,304.3,193.15Z"/><path class="cls-9" d="M579.59,203.06c-40.88-7-68-47.66-68-47.66s-19.42,47.66-100.71,47.66v15.17a84.37,84.37,0,0,0,84.37,84.37h0a84.37,84.37,0,0,0,84.37-84.37V203.06Z"/><path class="cls-4" d="M552.59,193.15v25.09a84.38,84.38,0,0,1-70.87,83.28,85,85,0,0,0,13.5,1.09h0a84.37,84.37,0,0,0,84.37-84.37V203.06A84,84,0,0,1,552.59,193.15Z"/><path class="cls-10" d="M371.07,427H122.78v-.3A124.14,124.14,0,0,1,246.93,302.61h0A124.14,124.14,0,0,1,371.07,426.75Z"/><path class="cls-11" d="M246.93,302.61h0a125.39,125.39,0,0,0-13.5.73A124.16,124.16,0,0,1,344.07,426.75v.3h27v-.3A124.14,124.14,0,0,0,246.93,302.61Z"/><path class="cls-3" d="M278.17,306.58a124.35,124.35,0,0,0-31.25-4h0a124.35,124.35,0,0,0-31.25,4,31.5,31.5,0,0,0,62.5,0Z"/><path class="cls-12" d="M619.36,427H371.07v-.3A124.14,124.14,0,0,1,495.21,302.61h0A124.14,124.14,0,0,1,619.36,426.75v.3Z"/><path class="cls-13" d="M495.21,302.61h0a125.39,125.39,0,0,0-13.5.73A124.16,124.16,0,0,1,592.36,426.75v.3h27v-.3A124.14,124.14,0,0,0,495.21,302.61Z"/><path class="cls-3" d="M526.46,306.58a124.35,124.35,0,0,0-31.25-4h0a124.35,124.35,0,0,0-31.25,4,31.5,31.5,0,0,0,62.5,0Z"/><circle class="cls-9" cx="368.72" cy="417.24" r="87.26"/><path class="cls-4" d="M368.72,330a88,88,0,0,0-13.5,1,87.27,87.27,0,0,1,0,172.43A87.26,87.26,0,1,0,368.72,330Z"/><path class="cls-3" d="M459,424.88a19.64,19.64,0,0,0-3.34.29,86.7,86.7,0,0,1-10.31,33.92A19.84,19.84,0,1,0,459,424.88Z"/><path class="cls-4" d="M281.83,425.17a19.65,19.65,0,0,0-3.34-.29,19.85,19.85,0,1,0,13.65,34.21A86.7,86.7,0,0,1,281.83,425.17Z"/><path d="M460.35,221.16a12.16,12.16,0,1,0,12.16,12.16A12.17,12.17,0,0,0,460.35,221.16Z"/><path d="M530.08,221.16a12.16,12.16,0,1,0,12.16,12.16A12.17,12.17,0,0,0,530.08,221.16Z"/><path d="M212.06,221.16a12.16,12.16,0,1,0,12.16,12.16A12.17,12.17,0,0,0,212.06,221.16Z"/><path d="M281.79,221.16a12.16,12.16,0,1,0,12.16,12.16A12.17,12.17,0,0,0,281.79,221.16Z"/><path d="M622.68,393.74a7.5,7.5,0,1,0-14.52,3.75,116.78,116.78,0,0,1,3.48,22.06h-142a27.14,27.14,0,0,0-6.16-1.79c0-.17,0-.34,0-.51A94.76,94.76,0,0,0,420,337.59,115.7,115.7,0,0,1,458.57,316a39,39,0,0,0,73.27.06,116.71,116.71,0,0,1,65.94,55.14A7.5,7.5,0,0,0,611,364a131.94,131.94,0,0,0-21.45-29.11c6.93-5.17,12.91-13.06,17.86-23.58,19.62-41.73,19.57-121.47,5.77-157.47A126.23,126.23,0,0,0,412,104a7.5,7.5,0,1,0,9.89,11.27,111.27,111.27,0,0,1,177.29,43.9c12.5,32.62,12.5,107.77-5.34,145.72-4.53,9.63-9.8,16.17-15.71,19.54a131.62,131.62,0,0,0-43.37-23.31,92,92,0,0,0,52.36-82.93V203.06a7.5,7.5,0,0,0-6.23-7.39c-37.12-6.38-62.82-44.06-63.07-44.43a7.57,7.57,0,0,0-13.18,1.34c-.18.43-18.39,43-93.77,43a7.5,7.5,0,0,0-7.5,7.5v15.17a92,92,0,0,0,52.3,82.9,130.41,130.41,0,0,0-43.32,23.33c-5.9-3.37-11.17-9.91-15.7-19.54-17.84-37.95-17.84-113.1-5.34-145.72A111.78,111.78,0,0,1,403.2,136.4,7.5,7.5,0,1,0,390.8,128a126.85,126.85,0,0,0-13.52,25.88c-13.8,36-13.85,115.73,5.77,157.47a76.82,76.82,0,0,0,8.28,13.91,94.46,94.46,0,0,0-20.41-2.71c-.75-5.87-1.26-14.18.17-20.65a7.5,7.5,0,1,0-14.65-3.22,70.42,70.42,0,0,0-1,19.3,32,32,0,0,1-14.16-19.65,7.5,7.5,0,0,0-14.8,2.46,46.84,46.84,0,0,0,15.24,25.67q-3.49,1-6.87,2.34a131,131,0,0,0-48.35-27.61,92.5,92.5,0,0,0,38.19-34,27.32,27.32,0,0,0,34.86-40c19.57-56.83,10.94-90.13,0-108.14s-28.93-29.52-50.86-32.52a64.85,64.85,0,0,0-35.5,5.29c-10.43-12.42-22.3-19.08-46.92-19.08-28.25,0-68.32,14.65-89.5,46.83-23.51,35.7-15,77.68-2.73,108a27.32,27.32,0,0,0,35.13,39.63,92.5,92.5,0,0,0,38.13,34,130.83,130.83,0,0,0-55.38,34.48A7.5,7.5,0,1,0,162.76,346a116,116,0,0,1,47.51-30.05,39,39,0,0,0,73.29,0,115.86,115.86,0,0,1,36.56,20A94.8,94.8,0,0,0,274,417.24c0,.17,0,.34,0,.51a27.14,27.14,0,0,0-6.16,1.79H130.5a116.51,116.51,0,0,1,15.3-51,7.5,7.5,0,1,0-13-7.49,131.62,131.62,0,0,0-17.53,65.67v.3a7.5,7.5,0,0,0,7.5,7.5H253.11a27.33,27.33,0,0,0,36.68,35.07,94.68,94.68,0,0,0,157.85,0,27.33,27.33,0,0,0,36.68-35.07h135a7.5,7.5,0,0,0,7.5-7.5v-.3A132,132,0,0,0,622.68,393.74ZM337.16,255.18a12.17,12.17,0,0,1-5.55-1.33A91.15,91.15,0,0,0,338,230.53a12.34,12.34,0,0,1-.81,24.65ZM149.31,127.75c18.14-27.54,52.62-40.08,77-40.08,23.79,0,30.55,6.84,38.86,18.1a7.54,7.54,0,0,0,10.21,1.78,49.39,49.39,0,0,1,31.31-6.23c17.35,2.38,31.58,11.41,40.06,25.43,12.63,20.87,12.68,52.06.26,90.57a27.15,27.15,0,0,0-8.2-1.78V203.06a7.5,7.5,0,0,0-6.23-7.39c-37.13-6.38-62.82-44.06-63.07-44.43a7.55,7.55,0,0,0-13.16,1.29c0,.11-4.7,10.85-18.38,21.43-18.26,14.13-44.34,21.6-75.41,21.6a7.5,7.5,0,0,0-7.5,7.5v12.47a27.14,27.14,0,0,0-8.79,2C132.67,181.67,133.68,151.49,149.31,127.75Zm7.38,127.42a12.34,12.34,0,0,1-.81-24.65,91.13,91.13,0,0,0,6.35,23.31A12.24,12.24,0,0,1,156.69,255.18Zm13.55-31.83v-.11c-.11-1.65-.18-3.32-.18-5v-7.81c56.89-2,83.31-27.06,94-41.73C274.36,181,295.48,202,323.8,209.13v9.1c0,1.68-.07,3.35-.18,5v.11a76.85,76.85,0,0,1-153.37,0Zm76.68,103.27a24,24,0,0,1-22-14.45,118.26,118.26,0,0,1,44,0A24,24,0,0,1,246.93,326.62Zm248.29,0a24,24,0,0,1-22-14.44,117.11,117.11,0,0,1,44,0A24,24,0,0,1,495.21,326.62ZM418.34,218.24v-7.81c56.89-2,83.32-27.06,94-41.73C522.65,181,543.77,202,572.09,209.13v9.1a76.87,76.87,0,0,1-153.74,0ZM278.49,457.07a12.34,12.34,0,0,1-3.23-24.25,94,94,0,0,0,7.19,23.58A12.19,12.19,0,0,1,278.49,457.07ZM368.72,497a79.76,79.76,0,1,1,79.76-79.76A79.85,79.85,0,0,1,368.72,497ZM459,457.07a12.19,12.19,0,0,1-4-.67,94,94,0,0,0,7.19-23.58A12.34,12.34,0,0,1,459,457.07Z"/><path d="M333.86,414A12.16,12.16,0,1,0,346,426.21,12.17,12.17,0,0,0,333.86,414Z"/><path d="M403.59,414a12.16,12.16,0,1,0,12.16,12.16A12.17,12.17,0,0,0,403.59,414Z"/><path d="M351.5,72.34a125.7,125.7,0,0,0,24.29,16.24,7.56,7.56,0,0,0,6.56,0,125.7,125.7,0,0,0,24.29-16.24c16.51-14.22,24.12-29.87,22-45.25-2.52-18.42-15.6-26-27-27a30.61,30.61,0,0,0-22.59,7,30.62,30.62,0,0,0-22.59-7c-11.4,1-24.48,8.54-27,27C327.38,42.47,335,58.11,351.5,72.34Zm-7.16-43.22c1.56-11.38,9.06-13.69,13.39-14.05q.73-.06,1.45-.06c6,0,11.39,3.06,12.73,7.34a7.5,7.5,0,0,0,14.31,0c1.45-4.63,7.68-7.83,14.18-7.28,4.33.36,11.84,2.67,13.39,14.05,2.64,19.29-21.73,37.06-34.73,44.26C366.07,66.17,341.7,48.4,344.34,29.12Z"/><text class="cls-14" transform="translate(0 636.76)">Ba<tspan class="cls-15" x="167.42" y="0">b</tspan><tspan class="cls-16" x="252.67" y="0">y</tspan><tspan class="cls-17" x="323.97" y="0">W</tspan><tspan class="cls-18" x="453.38" y="0">a</tspan><tspan class="cls-19" x="529.66" y="0">t</tspan><tspan class="cls-18" x="583.68" y="0">ch</tspan></text></g></g></svg>