<svg xmlns="http://www.w3.org/2000/svg" viewBox="0 0 511.58 512"><defs><style>.cls-1{fill:#6e563d;}.cls-2{fill:#604b35;}.cls-3{fill:#e09c77;}.cls-4{fill:#f7b081;}.cls-5{fill:#a58260;}.cls-6{fill:#8c6b50;}.cls-7{fill:#ff3d43;}.cls-8{fill:#d62d2d;}.cls-9{fill:#ffc89f;}.cls-10{fill:#8cc7ec;}.cls-11{fill:#66baea;}.cls-12{fill:#fd7dad;}.cls-13{fill:#fc63a1;}</style></defs><title>logo</title><g id="katman_2" data-name="katman 2"><g id="katman_1-2" data-name="katman 1"><path class="cls-1" d="M27.52,229C-18.56,122.2,64.9,80.17,111,80.17h0c25.51,0,34.86,7.55,44.89,21.15a56.28,56.28,0,0,1,36.51-7.43c39.25,5.38,76.32,43.48,43.36,134.76"/><path class="cls-2" d="M192.41,93.9a56.45,56.45,0,0,0-21,1.1c36.85,8.34,68.6,47.08,37.33,133.67h27C268.73,137.38,231.66,99.27,192.41,93.9Z"/><path class="cls-3" d="M221.88,223a19.81,19.81,0,0,0-6.08,1A83.84,83.84,0,0,1,207.08,256a19.84,19.84,0,1,0,14.8-33Z"/><path class="cls-4" d="M47.49,223.94A19.85,19.85,0,1,0,56.21,256,83.83,83.83,0,0,1,47.49,223.94Z"/><path class="cls-5" d="M461.58,333.24c42.5-14.36,45.91-133.34,29.28-176.71A118.82,118.82,0,0,0,379.93,80.17h0A118.83,118.83,0,0,0,269,156.53c-16.62,43.37-13.21,162.34,29.29,176.71Z"/><path class="cls-6" d="M490.86,156.53A118.82,118.82,0,0,0,379.93,80.17h0a119.09,119.09,0,0,0-13.5.77,118.86,118.86,0,0,1,97.43,75.59c16.62,43.37,13.22,162.34-29.28,176.71h27C504.08,318.87,507.49,199.9,490.86,156.53Z"/><path class="cls-7" d="M263.79,20.1c-5.23-16.69-38.41-19.4-42.16,8-4.26,31.16,42.16,53.73,42.16,53.73s46.42-22.57,42.16-53.73C302.2.7,269,3.41,263.79,20.1Z"/><path class="cls-8" d="M305.95,28.1C303,6.32,281.4,3.57,270,11.75c4.45,3.3,7.84,8.63,8.9,16.35,2.73,20-15.32,36.39-28.66,45.62a113.93,113.93,0,0,0,13.5,8.11S310.21,59.26,305.95,28.1Z"/><path class="cls-9" d="M216,203.06c-40.88-7-68-47.66-68-47.66s-19.42,47.66-100.71,47.66v15.17a84.37,84.37,0,0,0,84.37,84.37h0A84.37,84.37,0,0,0,216,218.24Z"/><path class="cls-4" d="M189,193.15v25.09a84.38,84.38,0,0,1-70.87,83.28,85,85,0,0,0,13.5,1.09h0A84.37,84.37,0,0,0,216,218.24V203.06A84,84,0,0,1,189,193.15Z"/><path class="cls-9" d="M464.3,203.06c-40.88-7-68-47.66-68-47.66s-19.42,47.66-100.71,47.66v15.17a84.37,84.37,0,0,0,84.37,84.37h0a84.37,84.37,0,0,0,84.37-84.37V203.06Z"/><path class="cls-4" d="M437.31,193.15v25.09a84.38,84.38,0,0,1-70.87,83.28,85,85,0,0,0,13.5,1.09h0a84.37,84.37,0,0,0,84.37-84.37V203.06A84,84,0,0,1,437.31,193.15Z"/><path class="cls-10" d="M255.79,427H7.5v-.3A124.14,124.14,0,0,1,131.64,302.61h0A124.14,124.14,0,0,1,255.79,426.75Z"/><path class="cls-11" d="M131.64,302.61h0a125.39,125.39,0,0,0-13.5.73A124.16,124.16,0,0,1,228.79,426.75v.3h27v-.3A124.14,124.14,0,0,0,131.64,302.61Z"/><path class="cls-3" d="M162.89,306.58a124.35,124.35,0,0,0-31.25-4h0a124.35,124.35,0,0,0-31.25,4,31.5,31.5,0,0,0,62.5,0Z"/><path class="cls-12" d="M504.08,427H255.79v-.3A124.14,124.14,0,0,1,379.93,302.61h0A124.14,124.14,0,0,1,504.08,426.75v.3Z"/><path class="cls-13" d="M379.93,302.61h0a125.39,125.39,0,0,0-13.5.73A124.16,124.16,0,0,1,477.08,426.75v.3h27v-.3A124.14,124.14,0,0,0,379.93,302.61Z"/><path class="cls-3" d="M411.18,306.58a124.35,124.35,0,0,0-31.25-4h0a124.35,124.35,0,0,0-31.25,4,31.5,31.5,0,0,0,62.5,0Z"/><circle class="cls-9" cx="253.44" cy="417.24" r="87.26"/><path class="cls-4" d="M253.44,330a88,88,0,0,0-13.5,1,87.27,87.27,0,0,1,0,172.43A87.26,87.26,0,1,0,253.44,330Z"/><path class="cls-3" d="M343.68,424.88a19.64,19.64,0,0,0-3.34.29A86.7,86.7,0,0,1,330,459.09a19.84,19.84,0,1,0,13.65-34.21Z"/><path class="cls-4" d="M166.55,425.17a19.65,19.65,0,0,0-3.34-.29,19.85,19.85,0,1,0,13.65,34.21A86.7,86.7,0,0,1,166.55,425.17Z"/><path d="M345.07,221.16a12.16,12.16,0,1,0,12.16,12.16A12.17,12.17,0,0,0,345.07,221.16Z"/><path d="M414.8,221.16A12.16,12.16,0,1,0,427,233.32,12.17,12.17,0,0,0,414.8,221.16Z"/><path d="M96.78,221.16a12.16,12.16,0,1,0,12.16,12.16A12.17,12.17,0,0,0,96.78,221.16Z"/><path d="M166.51,221.16a12.16,12.16,0,1,0,12.16,12.16A12.17,12.17,0,0,0,166.51,221.16Z"/><path d="M507.4,393.74a7.5,7.5,0,0,0-14.52,3.75,116.78,116.78,0,0,1,3.48,22.06h-142a27.14,27.14,0,0,0-6.16-1.79c0-.17,0-.34,0-.51a94.76,94.76,0,0,0-43.48-79.65A115.7,115.7,0,0,1,343.29,316a39,39,0,0,0,73.27.06,116.71,116.71,0,0,1,65.94,55.14A7.5,7.5,0,0,0,495.69,364a131.94,131.94,0,0,0-21.45-29.11c6.93-5.17,12.91-13.06,17.86-23.58,19.62-41.73,19.57-121.47,5.77-157.47A126.23,126.23,0,0,0,296.68,104a7.5,7.5,0,1,0,9.89,11.27,111.27,111.27,0,0,1,177.29,43.9c12.5,32.62,12.5,107.77-5.34,145.72-4.53,9.63-9.8,16.17-15.71,19.54a131.62,131.62,0,0,0-43.37-23.31,92,92,0,0,0,52.36-82.93V203.06a7.5,7.5,0,0,0-6.23-7.39c-37.12-6.38-62.82-44.06-63.07-44.43a7.57,7.57,0,0,0-13.18,1.34c-.18.43-18.39,43-93.77,43a7.5,7.5,0,0,0-7.5,7.5v15.17a92,92,0,0,0,52.3,82.9A130.41,130.41,0,0,0,297,324.47c-5.9-3.37-11.17-9.91-15.7-19.54C263.51,267,263.5,191.84,276,159.21a111.78,111.78,0,0,1,11.92-22.81,7.5,7.5,0,1,0-12.4-8.43A126.85,126.85,0,0,0,262,153.84c-13.8,36-13.85,115.73,5.77,157.47a76.82,76.82,0,0,0,8.28,13.91,94.46,94.46,0,0,0-20.41-2.71c-.75-5.87-1.26-14.18.17-20.65a7.5,7.5,0,1,0-14.65-3.22,70.42,70.42,0,0,0-1,19.3A32,32,0,0,1,226,298.29a7.5,7.5,0,0,0-14.8,2.46,46.84,46.84,0,0,0,15.24,25.67q-3.49,1-6.87,2.34a131,131,0,0,0-48.35-27.61,92.5,92.5,0,0,0,38.19-34,27.32,27.32,0,0,0,34.86-40c19.57-56.83,10.94-90.13,0-108.14s-28.93-29.52-50.86-32.52a64.85,64.85,0,0,0-35.5,5.29C147.5,79.34,135.63,72.67,111,72.67c-28.25,0-68.32,14.65-89.5,46.83-23.51,35.7-15,77.68-2.73,108A27.32,27.32,0,0,0,53.9,267.14a92.5,92.5,0,0,0,38.13,34,130.83,130.83,0,0,0-55.38,34.48A7.5,7.5,0,1,0,47.48,346,116,116,0,0,1,95,315.94a39,39,0,0,0,73.29,0,115.86,115.86,0,0,1,36.56,20,94.8,94.8,0,0,0-46.16,81.31c0,.17,0,.34,0,.51a27.14,27.14,0,0,0-6.16,1.79H15.22a116.51,116.51,0,0,1,15.3-51,7.5,7.5,0,1,0-13-7.49A131.62,131.62,0,0,0,0,426.75v.3a7.5,7.5,0,0,0,7.5,7.5H137.83a27.33,27.33,0,0,0,36.68,35.07,94.68,94.68,0,0,0,157.85,0,27.33,27.33,0,0,0,36.68-35.07h135a7.5,7.5,0,0,0,7.5-7.5v-.3A132,132,0,0,0,507.4,393.74ZM221.88,255.18a12.17,12.17,0,0,1-5.55-1.33,91.15,91.15,0,0,0,6.36-23.32,12.34,12.34,0,0,1-.81,24.65ZM34,127.75c18.14-27.54,52.62-40.08,77-40.08,23.79,0,30.55,6.84,38.86,18.1a7.54,7.54,0,0,0,10.21,1.78,49.39,49.39,0,0,1,31.31-6.23c17.35,2.38,31.58,11.41,40.06,25.43,12.63,20.87,12.68,52.06.26,90.57a27.15,27.15,0,0,0-8.2-1.78V203.06a7.5,7.5,0,0,0-6.23-7.39c-37.13-6.38-62.82-44.06-63.07-44.43a7.55,7.55,0,0,0-13.16,1.29c0,.11-4.7,10.85-18.38,21.43-18.26,14.13-44.34,21.6-75.41,21.6a7.5,7.5,0,0,0-7.5,7.5v12.47a27.14,27.14,0,0,0-8.79,2C17.39,181.67,18.4,151.49,34,127.75Zm7.38,127.42a12.34,12.34,0,0,1-.81-24.65,91.13,91.13,0,0,0,6.35,23.31A12.24,12.24,0,0,1,41.41,255.18ZM55,223.35v-.11c-.11-1.65-.18-3.32-.18-5v-7.81c56.89-2,83.31-27.06,94-41.73C159.08,181,180.2,202,208.52,209.13v9.1c0,1.68-.07,3.35-.18,5v.11a76.85,76.85,0,0,1-153.37,0Zm76.68,103.27a24,24,0,0,1-22-14.45,118.26,118.26,0,0,1,44,0A24,24,0,0,1,131.64,326.62Zm248.29,0a24,24,0,0,1-22-14.44,117.11,117.11,0,0,1,44,0A24,24,0,0,1,379.93,326.62ZM303.06,218.24v-7.81c56.89-2,83.32-27.06,94-41.73C407.37,181,428.49,202,456.81,209.13v9.1a76.87,76.87,0,0,1-153.74,0ZM163.21,457.07A12.34,12.34,0,0,1,160,432.82a94,94,0,0,0,7.19,23.58A12.19,12.19,0,0,1,163.21,457.07ZM253.44,497a79.76,79.76,0,1,1,79.76-79.76A79.85,79.85,0,0,1,253.44,497Zm90.23-39.93a12.19,12.19,0,0,1-4-.67,94,94,0,0,0,7.19-23.58,12.34,12.34,0,0,1-3.24,24.25Z"/><path d="M218.58,414a12.16,12.16,0,1,0,12.16,12.16A12.17,12.17,0,0,0,218.58,414Z"/><path d="M288.31,414a12.16,12.16,0,1,0,12.16,12.16A12.17,12.17,0,0,0,288.31,414Z"/><path d="M236.22,72.34a125.7,125.7,0,0,0,24.29,16.24,7.56,7.56,0,0,0,6.56,0,125.7,125.7,0,0,0,24.29-16.24c16.51-14.22,24.12-29.87,22-45.25-2.52-18.42-15.6-26-27-27a30.61,30.61,0,0,0-22.59,7,30.62,30.62,0,0,0-22.59-7c-11.4,1-24.48,8.54-27,27C212.09,42.47,219.71,58.11,236.22,72.34Zm-7.16-43.22c1.56-11.38,9.06-13.69,13.39-14.05q.73-.06,1.45-.06c6,0,11.39,3.06,12.73,7.34a7.5,7.5,0,0,0,14.31,0c1.45-4.63,7.68-7.83,14.18-7.28,4.33.36,11.84,2.67,13.39,14.05,2.64,19.29-21.73,37.06-34.73,44.26C250.79,66.17,226.42,48.4,229.06,29.12Z"/></g></g></svg>