<svg xmlns="http://www.w3.org/2000/svg" viewBox="0 0 724.86 662.49"><defs><style>.cls-1{fill:#6e563d;}.cls-2{fill:#604b35;}.cls-3{fill:#e09c77;}.cls-4{fill:#f7b081;}.cls-5{fill:#a58260;}.cls-6{fill:#8c6b50;}.cls-7{fill:#ff3d43;}.cls-8{fill:#d62d2d;}.cls-9{fill:#ffc89f;}.cls-10{fill:#8cc7ec;}.cls-11{fill:#66baea;}.cls-12{fill:#fd7dad;}.cls-13{fill:#fc63a1;}.cls-14{fill:#1dc5ff;}.cls-15{fill:#ff39aa;}</style></defs><title>logo</title><g id="katman_2" data-name="katman 2"><g id="katman_1-2" data-name="katman 1"><path class="cls-1" d="M132.95,229C86.87,122.2,170.33,80.17,216.44,80.17h0c25.51,0,34.86,7.55,44.89,21.15a56.28,56.28,0,0,1,36.51-7.43c39.25,5.38,76.32,43.48,43.36,134.76"/><path class="cls-2" d="M297.83,93.9a56.45,56.45,0,0,0-21,1.1c36.85,8.34,68.6,47.08,37.33,133.67h27C374.15,137.38,337.08,99.27,297.83,93.9Z"/><path class="cls-3" d="M327.3,223a19.81,19.81,0,0,0-6.08,1A83.84,83.84,0,0,1,312.5,256a19.84,19.84,0,1,0,14.8-33Z"/><path class="cls-4" d="M152.91,223.94A19.85,19.85,0,1,0,161.64,256,83.83,83.83,0,0,1,152.91,223.94Z"/><path class="cls-5" d="M567,333.24c42.5-14.36,45.91-133.34,29.28-176.71A118.82,118.82,0,0,0,485.36,80.17h0a118.83,118.83,0,0,0-110.93,76.36c-16.62,43.37-13.21,162.34,29.29,176.71Z"/><path class="cls-6" d="M596.29,156.53A118.82,118.82,0,0,0,485.36,80.17h0a119.09,119.09,0,0,0-13.5.77,118.86,118.86,0,0,1,97.43,75.59C585.91,199.9,582.5,318.87,540,333.24h27C609.5,318.87,612.91,199.9,596.29,156.53Z"/><path class="cls-7" d="M369.21,20.1C364,3.41,330.8.7,327.05,28.1c-4.26,31.16,42.16,53.73,42.16,53.73s46.42-22.57,42.16-53.73C407.62.7,374.44,3.41,369.21,20.1Z"/><path class="cls-8" d="M411.37,28.1c-3-21.78-24.55-24.52-35.9-16.35,4.45,3.3,7.84,8.63,8.9,16.35,2.73,20-15.32,36.39-28.66,45.62a113.93,113.93,0,0,0,13.5,8.11S415.64,59.26,411.37,28.1Z"/><path class="cls-9" d="M321.44,203.06c-40.88-7-68-47.66-68-47.66S234,203.06,152.7,203.06v15.17a84.37,84.37,0,0,0,84.37,84.37h0a84.37,84.37,0,0,0,84.37-84.37Z"/><path class="cls-4" d="M294.44,193.15v25.09a84.38,84.38,0,0,1-70.87,83.28,85,85,0,0,0,13.5,1.09h0a84.37,84.37,0,0,0,84.37-84.37V203.06A84,84,0,0,1,294.44,193.15Z"/><path class="cls-9" d="M569.73,203.06c-40.88-7-68-47.66-68-47.66S482.28,203.06,401,203.06v15.17a84.37,84.37,0,0,0,84.37,84.37h0a84.37,84.37,0,0,0,84.37-84.37V203.06Z"/><path class="cls-4" d="M542.73,193.15v25.09a84.38,84.38,0,0,1-70.87,83.28,85,85,0,0,0,13.5,1.09h0a84.37,84.37,0,0,0,84.37-84.37V203.06A84,84,0,0,1,542.73,193.15Z"/><path class="cls-10" d="M361.21,427H112.92v-.3A124.14,124.14,0,0,1,237.07,302.61h0A124.14,124.14,0,0,1,361.21,426.75Z"/><path class="cls-11" d="M237.07,302.61h0a125.39,125.39,0,0,0-13.5.73A124.16,124.16,0,0,1,334.21,426.75v.3h27v-.3A124.14,124.14,0,0,0,237.07,302.61Z"/><path class="cls-3" d="M268.32,306.58a124.35,124.35,0,0,0-31.25-4h0a124.35,124.35,0,0,0-31.25,4,31.5,31.5,0,0,0,62.5,0Z"/><path class="cls-12" d="M609.5,427H361.21v-.3A124.14,124.14,0,0,1,485.36,302.61h0A124.14,124.14,0,0,1,609.5,426.75v.3Z"/><path class="cls-13" d="M485.36,302.61h0a125.39,125.39,0,0,0-13.5.73A124.16,124.16,0,0,1,582.5,426.75v.3h27v-.3A124.14,124.14,0,0,0,485.36,302.61Z"/><path class="cls-3" d="M516.61,306.58a124.35,124.35,0,0,0-31.25-4h0a124.35,124.35,0,0,0-31.25,4,31.5,31.5,0,0,0,62.5,0Z"/><circle class="cls-9" cx="358.87" cy="417.24" r="87.26"/><path class="cls-4" d="M358.87,330a88,88,0,0,0-13.5,1,87.27,87.27,0,0,1,0,172.43A87.26,87.26,0,1,0,358.87,330Z"/><path class="cls-3" d="M449.1,424.88a19.64,19.64,0,0,0-3.34.29,86.7,86.7,0,0,1-10.31,33.92,19.84,19.84,0,1,0,13.65-34.21Z"/><path class="cls-4" d="M272,425.17a19.65,19.65,0,0,0-3.34-.29,19.85,19.85,0,1,0,13.65,34.21A86.7,86.7,0,0,1,272,425.17Z"/><path d="M450.49,221.16a12.16,12.16,0,1,0,12.16,12.16A12.17,12.17,0,0,0,450.49,221.16Z"/><path d="M520.22,221.16a12.16,12.16,0,1,0,12.16,12.16A12.17,12.17,0,0,0,520.22,221.16Z"/><path d="M202.2,221.16a12.16,12.16,0,1,0,12.16,12.16A12.17,12.17,0,0,0,202.2,221.16Z"/><path d="M271.93,221.16a12.16,12.16,0,1,0,12.16,12.16A12.17,12.17,0,0,0,271.93,221.16Z"/><path d="M612.83,393.74a7.5,7.5,0,1,0-14.52,3.75,116.78,116.78,0,0,1,3.48,22.06h-142a27.14,27.14,0,0,0-6.16-1.79c0-.17,0-.34,0-.51a94.76,94.76,0,0,0-43.48-79.65A115.7,115.7,0,0,1,448.71,316,39,39,0,0,0,522,316a116.71,116.71,0,0,1,65.94,55.14A7.5,7.5,0,0,0,601.11,364a131.94,131.94,0,0,0-21.45-29.11c6.93-5.17,12.91-13.06,17.86-23.58,19.62-41.73,19.57-121.47,5.77-157.47A126.23,126.23,0,0,0,402.1,104,7.5,7.5,0,1,0,412,115.31a111.27,111.27,0,0,1,177.29,43.9c12.5,32.62,12.5,107.77-5.34,145.72-4.53,9.63-9.8,16.17-15.71,19.54a131.62,131.62,0,0,0-43.37-23.31,92,92,0,0,0,52.36-82.93V203.06a7.5,7.5,0,0,0-6.23-7.39c-37.12-6.38-62.82-44.06-63.07-44.43a7.57,7.57,0,0,0-13.18,1.34c-.18.43-18.39,43-93.77,43a7.5,7.5,0,0,0-7.5,7.5v15.17a92,92,0,0,0,52.3,82.9,130.41,130.41,0,0,0-43.32,23.33c-5.9-3.37-11.17-9.91-15.7-19.54-17.84-37.95-17.84-113.1-5.34-145.72a111.78,111.78,0,0,1,11.92-22.81,7.5,7.5,0,1,0-12.4-8.43,126.85,126.85,0,0,0-13.52,25.88c-13.8,36-13.85,115.73,5.77,157.47a76.82,76.82,0,0,0,8.28,13.91,94.46,94.46,0,0,0-20.41-2.71c-.75-5.87-1.26-14.18.17-20.65a7.5,7.5,0,1,0-14.65-3.22,70.42,70.42,0,0,0-1,19.3,32,32,0,0,1-14.16-19.65,7.5,7.5,0,0,0-14.8,2.46,46.84,46.84,0,0,0,15.24,25.67q-3.49,1-6.87,2.34a131,131,0,0,0-48.35-27.61,92.5,92.5,0,0,0,38.19-34,27.32,27.32,0,0,0,34.86-40c19.57-56.83,10.94-90.13,0-108.14s-28.93-29.52-50.86-32.52a64.85,64.85,0,0,0-35.5,5.29c-10.43-12.42-22.3-19.08-46.92-19.08-28.25,0-68.32,14.65-89.5,46.83-23.51,35.7-15,77.68-2.73,108a27.32,27.32,0,0,0,35.13,39.63,92.5,92.5,0,0,0,38.13,34,130.83,130.83,0,0,0-55.38,34.48A7.5,7.5,0,1,0,152.9,346a116,116,0,0,1,47.51-30.05,39,39,0,0,0,73.29,0,115.86,115.86,0,0,1,36.56,20,94.8,94.8,0,0,0-46.16,81.31c0,.17,0,.34,0,.51a27.14,27.14,0,0,0-6.16,1.79H120.65a116.51,116.51,0,0,1,15.3-51,7.5,7.5,0,1,0-13-7.49,131.62,131.62,0,0,0-17.53,65.67v.3a7.5,7.5,0,0,0,7.5,7.5H243.26a27.33,27.33,0,0,0,36.68,35.07,94.68,94.68,0,0,0,157.85,0,27.33,27.33,0,0,0,36.68-35.07h135A7.5,7.5,0,0,0,617,427v-.3A132,132,0,0,0,612.83,393.74ZM327.3,255.18a12.17,12.17,0,0,1-5.55-1.33,91.15,91.15,0,0,0,6.36-23.32,12.34,12.34,0,0,1-.81,24.65ZM139.46,127.75c18.14-27.54,52.62-40.08,77-40.08,23.79,0,30.55,6.84,38.86,18.1a7.54,7.54,0,0,0,10.21,1.78,49.39,49.39,0,0,1,31.31-6.23c17.35,2.38,31.58,11.41,40.06,25.43,12.63,20.87,12.68,52.06.26,90.57a27.15,27.15,0,0,0-8.2-1.78V203.06a7.5,7.5,0,0,0-6.23-7.39c-37.13-6.38-62.82-44.06-63.07-44.43a7.55,7.55,0,0,0-13.16,1.29c0,.11-4.7,10.85-18.38,21.43-18.26,14.13-44.34,21.6-75.41,21.6a7.5,7.5,0,0,0-7.5,7.5v12.47a27.14,27.14,0,0,0-8.79,2C122.82,181.67,123.83,151.49,139.46,127.75Zm7.38,127.42a12.34,12.34,0,0,1-.81-24.65,91.13,91.13,0,0,0,6.35,23.31A12.24,12.24,0,0,1,146.83,255.18Zm13.55-31.83v-.11c-.11-1.65-.18-3.32-.18-5v-7.81c56.89-2,83.31-27.06,94-41.73C264.5,181,285.62,202,313.94,209.13v9.1c0,1.68-.07,3.35-.18,5v.11a76.85,76.85,0,0,1-153.37,0Zm76.68,103.27a24,24,0,0,1-22-14.45,118.26,118.26,0,0,1,44,0A24,24,0,0,1,237.07,326.62Zm248.29,0a24,24,0,0,1-22-14.44,117.11,117.11,0,0,1,44,0A24,24,0,0,1,485.36,326.62ZM408.49,218.24v-7.81c56.89-2,83.32-27.06,94-41.73C512.79,181,533.91,202,562.23,209.13v9.1a76.87,76.87,0,0,1-153.74,0ZM268.63,457.07a12.34,12.34,0,0,1-3.23-24.25,94,94,0,0,0,7.19,23.58A12.19,12.19,0,0,1,268.63,457.07ZM358.87,497a79.76,79.76,0,1,1,79.76-79.76A79.85,79.85,0,0,1,358.87,497Zm90.23-39.93a12.19,12.19,0,0,1-4-.67,94,94,0,0,0,7.19-23.58,12.34,12.34,0,0,1-3.24,24.25Z"/><path d="M324,414a12.16,12.16,0,1,0,12.16,12.16A12.17,12.17,0,0,0,324,414Z"/><path d="M393.73,414a12.16,12.16,0,1,0,12.16,12.16A12.17,12.17,0,0,0,393.73,414Z"/><path d="M341.64,72.34a125.7,125.7,0,0,0,24.29,16.24,7.56,7.56,0,0,0,6.56,0,125.7,125.7,0,0,0,24.29-16.24c16.51-14.22,24.12-29.87,22-45.25-2.52-18.42-15.6-26-27-27a30.61,30.61,0,0,0-22.59,7,30.62,30.62,0,0,0-22.59-7c-11.4,1-24.48,8.54-27,27C317.52,42.47,325.13,58.11,341.64,72.34Zm-7.16-43.22c1.56-11.38,9.06-13.69,13.39-14.05q.73-.06,1.45-.06c6,0,11.39,3.06,12.73,7.34a7.5,7.5,0,0,0,14.31,0c1.45-4.63,7.68-7.83,14.18-7.28,4.33.36,11.84,2.67,13.39,14.05,2.64,19.29-21.73,37.06-34.73,44.26C356.21,66.17,331.85,48.4,334.48,29.12Z"/><path class="cls-14" d="M73.22,569.56c0,9.6-5.89,17.15-15.49,19.71,11.65,2.18,18.69,10.88,18.69,22.66,0,15.36-13.06,24.83-33.79,24.83H0v-89.6H41.22C60.93,547.16,73.22,555.73,73.22,569.56Zm-20.74,3.71c0-6.14-4.61-9.73-12.29-9.6h-20v19.58h20C47.87,583.25,52.48,579.54,52.48,573.27Zm3.07,36.1c0-6.53-5.89-10.5-15.36-10.37h-20v21.25h20C49.67,620.25,55.55,616.28,55.55,609.37Z"/><path class="cls-14" d="M130.69,636.76V628.7c-4.61,5.76-12,9-21.63,9-14.72,0-23.68-9-23.68-21.51,0-12.93,9.34-20.61,26.24-20.74h18.94v-1.28c0-7.3-4.86-11.52-14.34-11.52-6.14,0-13.31,2-20.48,6L89.6,575.06c10.24-5.12,19.07-7.94,31.11-7.94,18.43,0,29.06,9.22,29.19,24.71l.13,44.93Zm-.13-23.55v-6.14H115.07c-7.55,0-11.26,2.3-11.26,7.81,0,5.25,4.1,8.7,10.75,8.7C122.88,623.58,129.41,619.1,130.56,613.21Z"/><path class="cls-14" d="M241.54,602.71c0,20.87-12.67,34.82-32,34.82-9.6,0-17.15-3.84-22.15-10.75v10H167.68v-95h19.71V578c4.86-6.91,12.42-10.75,21.76-10.75C228.48,567.25,241.54,581.46,241.54,602.71Zm-20-.64c0-11-6.91-18.95-17-18.95s-17.15,7.81-17.15,18.95c0,11.39,7,19.07,17.15,19.07S221.57,613.34,221.57,602.07Z"/><path class="cls-14" d="M260.48,662.49a27.7,27.7,0,0,1-18.69-6.66l8.32-14.21c3.07,2.56,5.76,3.71,9,3.71,4.1,0,7.17-2,9.09-6.14l1.92-3.84-28.55-67.46h20.35l18,47.36,16.26-47.36H315.9L285.7,644.44C280.83,656.6,272.38,662.49,260.48,662.49Z"/><path class="cls-15" d="M335.87,547.16l18.82,67.59,18.69-67.59h19.84l18.94,67.59,18.69-67.59h20.74l-29.7,89.6H401l-18-63.87-18.43,63.88H343.68l-29.57-89.6Z"/><path class="cls-15" d="M492.93,636.76V628.7c-4.61,5.76-12,9-21.63,9-14.72,0-23.68-9-23.68-21.51,0-12.93,9.34-20.61,26.24-20.74H492.8v-1.28c0-7.3-4.86-11.52-14.34-11.52-6.14,0-13.31,2-20.48,6l-6.14-13.57c10.24-5.12,19.07-7.94,31.11-7.94,18.43,0,29.06,9.22,29.19,24.71l.13,44.93Zm-.13-23.55v-6.14H477.31c-7.55,0-11.26,2.3-11.26,7.81,0,5.25,4.1,8.7,10.75,8.7C485.12,623.58,491.65,619.1,492.8,613.21Z"/><path class="cls-15" d="M571.9,632.92A36.68,36.68,0,0,1,554,637.66c-12.29,0-21.63-7-21.63-21.25V584.53h-9.6V571h9.6V552h19.58V571h18.69v13.7H551.94v28.42c0,5.76,2.43,8.06,6.66,7.94,2.56,0,5.63-.9,9.22-2.56Z"/><path class="cls-15" d="M613.5,584c-9.6,0-16.38,7.42-16.38,18.43s6.78,18.69,16.38,18.69c7,0,12.54-2.69,16-8.06l13.57,9.22c-5.76,9.6-16.51,15.23-30.59,15.23-20.87,0-35.07-14.08-35.07-34.95,0-21.12,14.21-35.33,35.33-35.33,13.18,0,23.68,5.25,29.83,14.46l-13.31,9.6A19,19,0,0,0,613.5,584Z"/><path class="cls-15" d="M724.86,593.5v43.27H705.15V599.25c0-8.7-5.12-14.08-13.57-14.08-9.86.13-15.87,7.55-15.87,17.66v33.92H656v-95h19.71v38.27c4.86-8.58,13.06-12.8,23.81-12.93C715,567.13,724.86,577.37,724.86,593.5Z"/></g></g></svg>