<svg xmlns="http://www.w3.org/2000/svg" viewBox="0 0 343.35 253.95"><defs><style>.cls-1{fill:#6e563d;}.cls-2{fill:#604b35;}.cls-3{fill:#e09c77;}.cls-4{fill:#f7b081;}.cls-5{fill:#a58260;}.cls-6{fill:#8c6b50;}.cls-7{fill:#ff3d43;}.cls-8{fill:#d62d2d;}.cls-9{fill:#ffc89f;}.cls-10{fill:#8cc7ec;}.cls-11{fill:#66baea;}.cls-12{fill:#fd7dad;}.cls-13{fill:#fc63a1;}.cls-14{font-size:45px;font-family:Montserrat-Bold, Montserrat;font-weight:700;}.cls-15{letter-spacing:-0.06em;}.cls-16{letter-spacing:0em;}.cls-17{letter-spacing:-0.02em;}.cls-18{fill:#06bfff;}.cls-19{fill:#f95598;}</style></defs><title>wob-logo</title><g id="katman_2" data-name="katman 2"><g id="katman_1-2" data-name="katman 1"><path class="cls-1" d="M108,63.91C95.11,34.1,118.4,22.37,131.27,22.37h0c7.12,0,9.73,2.11,12.53,5.9A15.71,15.71,0,0,1,154,26.2c11,1.5,21.3,12.14,12.1,37.61"/><path class="cls-2" d="M154,26.2a15.76,15.76,0,0,0-5.85.31c10.28,2.33,19.15,13.14,10.42,37.3h7.53C175.28,38.34,164.94,27.71,154,26.2Z"/><path class="cls-3" d="M162.21,62.23a5.53,5.53,0,0,0-1.7.27,23.4,23.4,0,0,1-2.43,9,5.54,5.54,0,1,0,4.13-9.22Z"/><path class="cls-4" d="M113.54,62.5a5.54,5.54,0,1,0,2.43,9A23.4,23.4,0,0,1,113.54,62.5Z"/><path class="cls-5" d="M229.11,93c11.86-4,12.81-37.21,8.17-49.32a33.16,33.16,0,0,0-31-21.31h0a33.16,33.16,0,0,0-31,21.31C170.72,55.79,171.67,89,183.53,93Z"/><path class="cls-6" d="M237.28,43.68a33.16,33.16,0,0,0-31-21.31h0a33.24,33.24,0,0,0-3.77.21,33.17,33.17,0,0,1,27.19,21.09c4.64,12.1,3.69,45.31-8.17,49.32h7.53C241,89,241.92,55.79,237.28,43.68Z"/><path class="cls-7" d="M173.91,5.61C172.45,1,163.19.2,162.14,7.84c-1.19,8.7,11.77,15,11.77,15s13-6.3,11.77-15C184.63.2,175.37,1,173.91,5.61Z"/><path class="cls-8" d="M185.67,7.84c-.83-6.08-6.85-6.84-10-4.56a6.55,6.55,0,0,1,2.48,4.56c.76,5.57-4.28,10.15-8,12.73a31.8,31.8,0,0,0,3.77,2.26S186.86,16.54,185.67,7.84Z"/><path class="cls-9" d="M160.57,56.67c-11.41-2-19-13.3-19-13.3s-5.42,13.3-28.11,13.3v4.23A23.55,23.55,0,0,0,137,84.45h0a23.55,23.55,0,0,0,23.55-23.55Z"/><path class="cls-4" d="M153,53.91v7a23.55,23.55,0,0,1-19.78,23.24,23.71,23.71,0,0,0,3.77.3h0a23.55,23.55,0,0,0,23.55-23.55V56.67A23.43,23.43,0,0,1,153,53.91Z"/><path class="cls-9" d="M229.87,56.67c-11.41-2-19-13.3-19-13.3s-5.42,13.3-28.11,13.3v4.23a23.55,23.55,0,0,0,23.55,23.55h0a23.55,23.55,0,0,0,23.55-23.55V56.67Z"/><path class="cls-4" d="M222.33,53.91v7a23.55,23.55,0,0,1-19.78,23.24,23.71,23.71,0,0,0,3.77.3h0a23.55,23.55,0,0,0,23.55-23.55V56.67A23.43,23.43,0,0,1,222.33,53.91Z"/><path class="cls-10" d="M171.67,119.18H102.38v-.08A34.65,34.65,0,0,1,137,84.45h0a34.65,34.65,0,0,1,34.65,34.65Z"/><path class="cls-11" d="M137,84.45h0a35,35,0,0,0-3.77.2,34.65,34.65,0,0,1,30.88,34.44v.08h7.53v-.08A34.65,34.65,0,0,0,137,84.45Z"/><path class="cls-3" d="M145.75,85.56A34.7,34.7,0,0,0,137,84.45h0a34.7,34.7,0,0,0-8.72,1.11,8.79,8.79,0,0,0,17.44,0Z"/><path class="cls-12" d="M241,119.18H171.67v-.08a34.65,34.65,0,0,1,34.65-34.65h0A34.65,34.65,0,0,1,241,119.1v.08Z"/><path class="cls-13" d="M206.32,84.45h0a35,35,0,0,0-3.77.2,34.65,34.65,0,0,1,30.88,34.44v.08H241v-.08A34.65,34.65,0,0,0,206.32,84.45Z"/><path class="cls-3" d="M215,85.56a34.7,34.7,0,0,0-8.72-1.11h0a34.7,34.7,0,0,0-8.72,1.11,8.79,8.79,0,0,0,17.44,0Z"/><circle class="cls-9" cx="171.02" cy="116.45" r="24.35"/><path class="cls-4" d="M171,92.09a24.55,24.55,0,0,0-3.77.29,24.35,24.35,0,0,1,0,48.12A24.35,24.35,0,1,0,171,92.09Z"/><path class="cls-3" d="M196.2,118.58a5.48,5.48,0,0,0-.93.08,24.2,24.2,0,0,1-2.88,9.47,5.54,5.54,0,1,0,3.81-9.55Z"/><path class="cls-4" d="M146.77,118.66a5.48,5.48,0,0,0-.93-.08,5.54,5.54,0,1,0,3.81,9.55A24.2,24.2,0,0,1,146.77,118.66Z"/><path d="M196.59,61.72A3.39,3.39,0,1,0,200,65.11,3.4,3.4,0,0,0,196.59,61.72Z"/><path d="M216.05,61.72a3.39,3.39,0,1,0,3.39,3.39A3.4,3.4,0,0,0,216.05,61.72Z"/><path d="M127.3,61.72a3.39,3.39,0,1,0,3.39,3.39A3.4,3.4,0,0,0,127.3,61.72Z"/><path d="M146.76,61.72a3.39,3.39,0,1,0,3.39,3.39A3.4,3.4,0,0,0,146.76,61.72Z"/><path d="M241.89,109.89a2.09,2.09,0,1,0-4.05,1,32.59,32.59,0,0,1,1,6.16H199.18a7.57,7.57,0,0,0-1.72-.5s0-.1,0-.14a26.45,26.45,0,0,0-12.13-22.23,32.29,32.29,0,0,1,10.76-6,10.88,10.88,0,0,0,20.45,0,32.57,32.57,0,0,1,18.4,15.39,2.09,2.09,0,0,0,3.68-2,36.82,36.82,0,0,0-6-8.12,17.07,17.07,0,0,0,5-6.58c5.48-11.65,5.46-33.9,1.61-43.95A35.23,35.23,0,0,0,183.08,29a2.09,2.09,0,1,0,2.76,3.15,31.05,31.05,0,0,1,49.48,12.25c3.49,9.1,3.49,30.08-1.49,40.67-1.26,2.69-2.73,4.51-4.38,5.45a36.73,36.73,0,0,0-12.1-6.51A25.67,25.67,0,0,0,232,60.91V56.67a2.09,2.09,0,0,0-1.74-2.06c-10.36-1.78-17.53-12.3-17.6-12.4a2.11,2.11,0,0,0-3.68.37c0,.12-5.13,12-26.17,12a2.09,2.09,0,0,0-2.09,2.09v4.23A25.67,25.67,0,0,0,195.28,84a36.4,36.4,0,0,0-12.09,6.51c-1.65-.94-3.12-2.77-4.38-5.45-5-10.59-5-31.56-1.49-40.67a31.2,31.2,0,0,1,3.33-6.37,2.09,2.09,0,1,0-3.46-2.35,35.4,35.4,0,0,0-3.77,7.22c-3.85,10-3.86,32.3,1.61,43.95a21.44,21.44,0,0,0,2.31,3.88,26.36,26.36,0,0,0-5.7-.76,18.41,18.41,0,0,1,0-5.76,2.09,2.09,0,1,0-4.09-.9,19.65,19.65,0,0,0-.29,5.39,8.92,8.92,0,0,1-4-5.48,2.09,2.09,0,0,0-4.13.69,13.07,13.07,0,0,0,4.25,7.16q-1,.29-1.92.65A36.55,36.55,0,0,0,148.07,84a25.81,25.81,0,0,0,10.66-9.49,7.62,7.62,0,0,0,9.73-11.17c5.46-15.86,3.05-25.15,0-30.18a19.23,19.23,0,0,0-14.19-9.08,18.1,18.1,0,0,0-9.91,1.48c-2.91-3.47-6.22-5.32-13.09-5.32-7.89,0-19.07,4.09-25,13.07-6.56,10-4.18,21.68-.76,30.14a7.63,7.63,0,0,0,9.8,11.06A25.82,25.82,0,0,0,126,84a36.51,36.51,0,0,0-15.46,9.62,2.09,2.09,0,1,0,3,2.9,32.37,32.37,0,0,1,13.26-8.39,10.88,10.88,0,0,0,20.45,0,32.33,32.33,0,0,1,10.2,5.57,26.46,26.46,0,0,0-12.88,22.69s0,.1,0,.14a7.57,7.57,0,0,0-1.72.5H104.54a32.52,32.52,0,0,1,4.27-14.23,2.09,2.09,0,1,0-3.63-2.09,36.73,36.73,0,0,0-4.89,18.33v.08a2.09,2.09,0,0,0,2.09,2.09h36.37A7.63,7.63,0,0,0,149,131.06a26.42,26.42,0,0,0,44.05,0,7.63,7.63,0,0,0,10.24-9.79H241a2.09,2.09,0,0,0,2.09-2.09v-.08A36.84,36.84,0,0,0,241.89,109.89ZM162.21,71.22a3.4,3.4,0,0,1-1.55-.37,25.44,25.44,0,0,0,1.77-6.51,3.44,3.44,0,0,1-.23,6.88ZM109.79,35.65c5.06-7.69,14.68-11.19,21.48-11.19,6.64,0,8.53,1.91,10.84,5.05A2.1,2.1,0,0,0,145,30a13.79,13.79,0,0,1,8.74-1.74,15.12,15.12,0,0,1,11.18,7.1c3.52,5.83,3.54,14.53.07,25.28a7.58,7.58,0,0,0-2.29-.5V56.67a2.09,2.09,0,0,0-1.74-2.06c-10.36-1.78-17.53-12.3-17.6-12.4a2.11,2.11,0,0,0-3.67.36,17.09,17.09,0,0,1-5.13,6c-5.1,3.94-12.37,6-21,6a2.09,2.09,0,0,0-2.09,2.09v3.48a7.57,7.57,0,0,0-2.45.56C105.14,50.7,105.42,42.28,109.79,35.65Zm2.06,35.56a3.44,3.44,0,0,1-.23-6.88,25.43,25.43,0,0,0,1.77,6.5A3.42,3.42,0,0,1,111.84,71.22Zm3.78-8.88v0c0-.46-.05-.93-.05-1.4V58.73c15.88-.57,23.25-7.55,26.23-11.65,2.88,3.42,8.77,9.29,16.68,11.28v2.54c0,.47,0,.93-.05,1.4v0a21.45,21.45,0,0,1-42.8,0ZM137,91.15a6.71,6.71,0,0,1-6.14-4,33,33,0,0,1,12.29,0A6.71,6.71,0,0,1,137,91.15Zm69.29,0a6.71,6.71,0,0,1-6.14-4,32.68,32.68,0,0,1,12.28,0A6.71,6.71,0,0,1,206.32,91.15ZM184.87,60.91V58.73c15.88-.57,23.25-7.55,26.23-11.65,2.88,3.42,8.77,9.29,16.68,11.28v2.54a21.45,21.45,0,0,1-42.91,0Zm-39,66.65a3.44,3.44,0,0,1-.9-6.77,26.23,26.23,0,0,0,2,6.58A3.4,3.4,0,0,1,145.84,127.56ZM171,138.7a22.26,22.26,0,1,1,22.26-22.26A22.28,22.28,0,0,1,171,138.7Zm25.18-11.14a3.4,3.4,0,0,1-1.1-.19,26.23,26.23,0,0,0,2-6.58,3.44,3.44,0,0,1-.9,6.77Z"/><path d="M161.29,115.55a3.39,3.39,0,1,0,3.39,3.39A3.4,3.4,0,0,0,161.29,115.55Z"/><path d="M180.75,115.55a3.39,3.39,0,1,0,3.39,3.39A3.4,3.4,0,0,0,180.75,115.55Z"/><path d="M166.21,20.19A35.08,35.08,0,0,0,173,24.72a2.11,2.11,0,0,0,1.83,0,35.08,35.08,0,0,0,6.78-4.53c4.61-4,6.73-8.34,6.14-12.63C187,2.42,183.39.3,180.21,0a8.54,8.54,0,0,0-6.31,2,8.55,8.55,0,0,0-6.31-2c-3.18.27-6.83,2.38-7.53,7.53C159.48,11.85,161.6,16.22,166.21,20.19Zm-2-12.06C164.65,5,166.74,4.31,168,4.2l.4,0c1.66,0,3.18.85,3.55,2a2.09,2.09,0,0,0,4,0c.4-1.29,2.14-2.18,4-2,1.21.1,3.3.75,3.74,3.92.74,5.38-6.07,10.34-9.69,12.35C170.28,18.47,163.48,13.51,164.21,8.13Z"/><text class="cls-14" transform="translate(0.09 186)"><tspan class="cls-15">W</tspan><tspan x="46.12" y="0">a</tspan><tspan class="cls-16" x="73.17" y="0">t</tspan><tspan x="92.7" y="0">ching </tspan><tspan class="cls-16" x="235.62" y="0">O</tspan><tspan class="cls-17" x="271.66" y="0">v</tspan><tspan x="296.77" y="0">er</tspan><tspan class="cls-18"><tspan x="94.32" y="54">Bab</tspan><tspan class="cls-19" x="184.45" y="54">ies</tspan></tspan></text></g></g></svg>